<svg xmlns="http://www.w3.org/2000/svg" xml:space="preserve" width="2048" height="2048" style="shape-rendering:geometricPrecision;text-rendering:geometricPrecision;image-rendering:optimizeQuality;fill-rule:evenodd;clip-rule:evenodd"><defs><style>.fil1{fill:none}.fil4{fill:#b8b8b8}.fil3{fill:#c4c4c4}.fil5{fill:#fffffe}.fil0,.fil2{fill:#414141;fill-rule:nonzero}.fil2{fill:#bebebe}</style></defs><g id="Layer_x0020_1"><g id="_345806536"><path id="_345804928" class="fil0" d="M647.084 1417.73c31.365 0 59.776 12.72 80.33 33.281 20.562 20.556 33.283 48.965 33.283 80.332 0 31.372-12.72 59.775-33.283 80.337-20.554 20.555-48.965 33.275-80.33 33.275-31.373 0-59.776-12.72-80.33-33.275-20.562-20.562-33.283-48.965-33.283-80.337 0-31.367 12.72-59.776 33.283-80.332 20.554-20.562 48.957-33.281 80.33-33.281z"/><path id="_345805048" class="fil1" d="M0 0h2048v2048H0z"/><path id="_345805288" class="fil1" d="M255.999 255.999h1536v1536h-1536z"/><path id="_345805504" class="fil2" d="M682.635 1495.79c-9.096-9.096-21.665-14.725-35.551-14.725-13.886 0-26.456 5.63-35.551 14.725-9.096 9.096-14.725 21.67-14.725 35.551 0 13.886 5.629 26.462 14.725 35.557 9.095 9.096 21.665 14.72 35.55 14.72 13.887 0 26.456-5.624 35.552-14.72 9.096-9.095 14.725-21.67 14.725-35.557 0-13.88-5.63-26.455-14.725-35.551z"/><path id="_345807640" class="fil0" d="M1073.81 1417.73c31.372 0 59.776 12.72 80.33 33.281 20.562 20.556 33.283 48.965 33.283 80.332 0 31.372-12.72 59.775-33.283 80.337-20.554 20.555-48.958 33.275-80.33 33.275s-59.776-12.72-80.338-33.275c-20.554-20.562-33.275-48.965-33.275-80.337 0-31.367 12.72-59.776 33.275-80.332 20.562-20.562 48.965-33.281 80.338-33.281z"/><path id="_345806680" class="fil3" d="M359.439 677.388h1016.78l45.22-98.895c71.973-157.339 182.944-163.908 316.988-171.843 16.635-.99 33.68-1.998 53.572-3.606v63.469c-15.765 1.205-33.004 2.225-49.866 3.22-113.329 6.714-207.162 12.268-263.3 134.983l-360.613 793.822-523.367-.347.076-62.682 480.447-.302 56.725-123.957H595.47L399.9 873.632l-.095.057-35.4-61.333-55.457-95.735.126-.126-53.075-91.936h73.397l2.156 4.482 27.885 48.347z"/><path id="_345805984" class="fil3" d="m895.998 1398.39-301.144-.2.076-62.68 301.068-.19z"/><path id="_345806584" class="fil4" d="M359.439 677.388h536.559v533.862H595.472L399.901 873.631l-.094.057-35.4-61.332-55.458-95.736.127-.126-53.075-91.936h73.397l2.155 4.482z"/><path id="_345806776" class="fil2" d="M1109.36 1495.79c-9.096-9.096-21.665-14.725-35.551-14.725-13.886 0-26.462 5.63-35.559 14.725-9.095 9.096-14.717 21.67-14.717 35.551 0 13.886 5.622 26.462 14.717 35.557 9.097 9.096 21.673 14.72 35.559 14.72s26.455-5.624 35.551-14.72c9.096-9.095 14.725-21.67 14.725-35.557 0-13.88-5.63-26.455-14.725-35.551z"/><path id="_345806992" class="fil4" d="M1149.91 986.851H632.762l-37.191-63.337h582.899z"/><path id="_345806248" class="fil4" d="M1098.41 1101.02H699.811l-37.191-63.33h464.36z"/><path id="_345806560" class="fil4" d="M1201.4 872.677H565.712l-37.191-63.337h701.759z"/><path id="_345807472" class="fil5" d="M1146.24 975.615H629.095l-37.191-63.337h582.906z"/><path id="_345807352" class="fil5" d="M1094.75 1089.79H696.143l-37.19-63.33h464.357z"/><path id="_345807184" class="fil5" d="M1197.73 861.441H562.045l-37.191-63.336h701.756z"/></g></g></svg>